<?xml version="1.0" encoding="UTF-8" standalone="no"?>
<!-- Created with Inkscape (http://www.inkscape.org/) -->

<svg
   width="190.75989mm"
   height="12.209661mm"
   viewBox="0 0 190.75989 12.209662"
   version="1.1"
   id="svg1"
   sodipodi:docname="mrdbid_logo.svg"
   inkscape:version="1.4.2 (ebf0e940, 2025-05-08)"
   inkscape:export-filename="mrdbid_logo.svg"
   inkscape:export-xdpi="96"
   inkscape:export-ydpi="96"
   xmlns:inkscape="http://www.inkscape.org/namespaces/inkscape"
   xmlns:sodipodi="http://sodipodi.sourceforge.net/DTD/sodipodi-0.dtd"
   xmlns="http://www.w3.org/2000/svg"
   xmlns:svg="http://www.w3.org/2000/svg">
  <sodipodi:namedview
     id="namedview1"
     pagecolor="#ffffff"
     bordercolor="#000000"
     borderopacity="0.25"
     inkscape:showpageshadow="2"
     inkscape:pageopacity="0.0"
     inkscape:pagecheckerboard="0"
     inkscape:deskcolor="#d1d1d1"
     inkscape:document-units="mm"
     inkscape:lockguides="false"
     inkscape:zoom="0.86679994"
     inkscape:cx="-204.7762"
     inkscape:cy="179.39549"
     inkscape:window-width="2240"
     inkscape:window-height="1236"
     inkscape:window-x="1920"
     inkscape:window-y="24"
     inkscape:window-maximized="0"
     inkscape:current-layer="layer1" />
  <defs
     id="defs1">
    <rect
       x="-1.1536686"
       y="1.1536686"
       width="793.72406"
       height="113.05954"
       id="rect5" />
    <rect
       x="23.073376"
       y="20.766037"
       width="749.8847"
       height="129.21091"
       id="rect1" />
  </defs>
  <g
     inkscape:label="Layer 1"
     inkscape:groupmode="layer"
     id="layer1"
     transform="translate(-79.951203,-82.198429)">
    <text
       xml:space="preserve"
       transform="scale(0.26458333)"
       id="text1"
       style="font-weight:bold;font-size:18.6667px;font-family:Arial;-inkscape-font-specification:'Arial Bold';text-align:start;writing-mode:lr-tb;direction:ltr;white-space:pre;shape-inside:url(#rect1);display:inline;fill:#ee0029" />
    <text
       xml:space="preserve"
       style="font-weight:bold;font-size:12.7px;font-family:Arial;-inkscape-font-specification:'Arial Bold';text-align:start;writing-mode:lr-tb;direction:ltr;text-anchor:start;fill:#000000;fill-opacity:1;stroke-width:0.264583"
       x="14.04111"
       y="19.535458"
       id="text2"><tspan
         sodipodi:role="line"
         id="tspan2"
         style="font-size:12.7px;fill:#000000;fill-opacity:1;stroke-width:0.264583"
         x="14.04111"
         y="19.535458" /></text>
    <text
       xml:space="preserve"
       transform="scale(0.26458333)"
       id="text5"
       style="font-weight:bold;font-size:64px;font-family:Arial;-inkscape-font-specification:'Arial Bold';text-align:start;writing-mode:lr-tb;direction:ltr;white-space:pre;shape-inside:url(#rect5);display:inline;fill:#f30000;fill-opacity:1" />
    <g
       id="text6"
       style="font-weight:bold;font-size:16.9333px;font-family:Arial;-inkscape-font-specification:'Arial Bold';fill:#ff0000;stroke-width:0.264583"
       aria-label="MRDBID "
       transform="translate(72.952723,71.426515)">
      <path
         d="m 6.9984796,22.893114 v -12.1212 h 3.6628184 l 2.199344,8.268213 2.17454,-8.268213 h 3.671087 v 12.1212 H 16.43251 v -9.541518 l -2.406049,9.541518 H 11.67002 L 9.2722381,13.351596 v 9.541518 z"
         id="path23" />
      <path
         style="fill:#ff5f00"
         d="m 21.145391,22.893114 v -12.1212 h 5.151097 q 1.94303,0 2.819461,0.330728 0.884698,0.322461 1.413864,1.15755 0.529166,0.83509 0.529166,1.909957 0,1.364256 -0.802017,2.257223 -0.802017,0.884698 -2.397782,1.116208 0.793749,0.46302 1.306378,1.016991 0.520897,0.55397 1.397328,1.967834 l 1.48001,2.364709 h -2.926947 l -1.769398,-2.63756 Q 26.403975,18.84169 26.05671,18.477888 25.709445,18.105819 25.320839,17.973527 24.932233,17.832968 24.088875,17.832968 h -0.496093 v 5.060146 z m 2.447391,-6.994908 h 1.810739 q 1.761129,0 2.199345,-0.148828 0.438215,-0.148828 0.686261,-0.512629 0.248047,-0.363801 0.248047,-0.909503 0,-0.611848 -0.330729,-0.983918 -0.32246,-0.380338 -0.917771,-0.479556 -0.297656,-0.04134 -1.785934,-0.04134 h -1.909958 z"
         id="path24" />
      <path
         style="fill:#00f700"
         d="m 45.602767,10.771914 h 4.845173 q 1.438669,0 2.141467,0.124023 0.711066,0.115755 1.265036,0.496093 0.562239,0.380338 0.934308,1.01699 0.37207,0.628384 0.37207,1.413865 0,0.851625 -0.46302,1.562692 -0.454752,0.711066 -1.240232,1.066599 1.107941,0.322461 1.703252,1.099673 0.595311,0.777212 0.595311,1.827275 0,0.826821 -0.388606,1.612301 -0.380337,0.777212 -1.050063,1.2485 -0.661457,0.46302 -1.637106,0.570507 -0.611848,0.06615 -2.951752,0.08268 h -4.125838 z m 2.447391,2.017444 v 2.802924 h 1.604033 q 1.430401,0 1.777666,-0.04134 0.628384,-0.07441 0.983917,-0.429947 0.363802,-0.363801 0.363802,-0.950845 0,-0.562238 -0.314192,-0.909503 Q 52.15946,12.905114 51.547612,12.8307 51.183811,12.78936 49.455754,12.78936 Z m 0,4.820368 v 3.24114 h 2.26549 q 1.322914,0 1.678448,-0.07441 0.545702,-0.09922 0.884698,-0.479557 0.347265,-0.388606 0.347265,-1.033526 0,-0.545702 -0.264583,-0.92604 -0.264582,-0.380338 -0.768943,-0.55397 Q 51.69644,17.60973 50.026261,17.60973 Z"
         id="path26" />
      <path
         style="fill:#0000fb"
         d="m 57.748772,22.893114 v -12.1212 h 2.447391 v 12.1212 z"
         id="path27" />
      <path
         style="fill:#4b00bc"
         d="m 62.519531,10.771914 h 4.473103 q 1.513083,0 2.306831,0.23151 1.0666,0.314192 1.827275,1.116209 0.760676,0.802016 1.15755,1.967834 0.396874,1.15755 0.396874,2.860802 0,1.496547 -0.372069,2.579682 -0.454752,1.322915 -1.29811,2.141468 -0.636652,0.620116 -1.719788,0.96738 -0.810285,0.256315 -2.166272,0.256315 h -4.605394 z m 2.447391,2.050517 v 8.028435 h 1.827275 q 1.025258,0 1.48001,-0.115755 0.595311,-0.148828 0.983917,-0.504361 0.396874,-0.355534 0.644921,-1.165818 0.248046,-0.818554 0.248046,-2.22415 0,-1.405596 -0.248046,-2.158003 -0.248047,-0.752408 -0.69453,-1.174087 -0.446484,-0.421678 -1.132745,-0.570506 -0.51263,-0.115755 -2.009176,-0.115755 z"
         id="path28" />
      <text
         xml:space="preserve"
         style="font-weight:bold;font-size:16.9333px;font-family:Arial;-inkscape-font-specification:'Arial Bold';text-align:start;writing-mode:lr-tb;direction:ltr;text-anchor:start;fill:#4b00b5;fill-opacity:1;stroke-width:0.0700042"
         x="32.638767"
         y="22.981575"
         id="text39"><tspan
           sodipodi:role="line"
           id="tspan39"
           style="font-size:16.9333px;fill:#ffcc00;stroke-width:0.0700042"
           x="32.638767"
           y="22.981575">D</tspan></text>
    </g>
    <g
       id="text7"
       style="font-weight:bold;font-size:7.05556px;font-family:Arial;-inkscape-font-specification:'Arial Bold';fill:#ff0000;stroke-width:0.264583"
       aria-label="MushRoom DataBase IDentification"
       transform="translate(73.257965,71.731757)">
      <path
         d="m 79.251851,22.282631 v -5.050513 h 1.526178 l 0.916396,3.445097 0.906061,-3.445097 h 1.529623 v 5.050513 h -0.947402 v -3.975643 l -1.002523,3.975643 h -0.981853 l -0.999078,-3.975643 v 3.975643 z"
         id="path29" />
      <path
         style="fill:#8f00f4"
         d="M 87.544201,22.282631 V 21.73486 q -0.199816,0.292834 -0.5271,0.461643 -0.323839,0.16881 -0.685575,0.16881 -0.368625,0 -0.661458,-0.161919 -0.292834,-0.16192 -0.423747,-0.454753 -0.130914,-0.292834 -0.130914,-0.809598 v -2.315106 h 0.968072 v 1.681208 q 0,0.771702 0.05168,0.947402 0.05512,0.172255 0.19637,0.275608 0.141249,0.09991 0.358291,0.09991 0.248047,0 0.444417,-0.134358 0.196371,-0.137804 0.268718,-0.33762 0.07235,-0.203261 0.07235,-0.988743 V 18.62394 h 0.968072 v 3.658694 z m 1.560629,-1.043865 0.971518,-0.148139 q 0.06201,0.282498 0.251492,0.430637 0.18948,0.144694 0.530545,0.144694 0.375516,0 0.564996,-0.137803 0.127469,-0.09646 0.127469,-0.258383 0,-0.110243 -0.0689,-0.18259 -0.07235,-0.0689 -0.32384,-0.127469 -1.171333,-0.258382 -1.484837,-0.471978 -0.434082,-0.296278 -0.434082,-0.823378 0,-0.475424 0.375516,-0.799263 0.375515,-0.323839 1.164443,-0.323839 0.751031,0 1.116211,0.244602 0.365181,0.244602 0.502985,0.72347 l -0.912951,0.16881 q -0.05857,-0.213596 -0.223932,-0.327284 -0.161919,-0.113688 -0.465088,-0.113688 -0.382406,0 -0.54777,0.106798 -0.110243,0.07579 -0.110243,0.19637 0,0.103353 0.09646,0.1757 0.130914,0.09646 0.902616,0.272163 0.775147,0.1757 1.081761,0.430637 0.303168,0.258382 0.303168,0.720025 0,0.502985 -0.420302,0.86472 -0.420302,0.361735 -1.24368,0.361735 -0.747586,0 -1.185114,-0.303168 -0.434082,-0.303169 -0.568441,-0.823379 z m 5.229659,-4.006648 v 1.856907 q 0.468533,-0.54777 1.119656,-0.54777 0.334175,0 0.602893,0.124023 0.268717,0.124024 0.403076,0.316949 0.137804,0.192926 0.186035,0.427192 0.05168,0.234267 0.05168,0.726916 v 2.146296 h -0.968073 v -1.9327 q 0,-0.575331 -0.05512,-0.730361 -0.05512,-0.155029 -0.196371,-0.244602 -0.137804,-0.09302 -0.347955,-0.09302 -0.241157,0 -0.430637,0.117133 -0.18948,0.117133 -0.279053,0.354845 -0.08613,0.234267 -0.08613,0.69591 v 1.832792 h -0.968073 v -5.050513 z"
         id="path30" />
      <path
         style="fill:#ff4d00"
         d="m 97.690013,22.282631 v -5.050513 h 2.146296 q 0.809601,0 1.174781,0.137804 0.36862,0.134358 0.58911,0.482313 0.22049,0.347955 0.22049,0.795818 0,0.568441 -0.33418,0.940512 -0.33417,0.368625 -0.99908,0.465088 0.33073,0.192925 0.54433,0.423747 0.21704,0.230821 0.58222,0.819933 l 0.61667,0.985298 h -1.21956 l -0.73725,-1.098986 q -0.392745,-0.589112 -0.537439,-0.740696 -0.144694,-0.15503 -0.306614,-0.210151 -0.161919,-0.05857 -0.513319,-0.05857 h -0.206706 v 2.1084 z m 1.019749,-2.914553 h 0.754476 q 0.733802,0 0.916392,-0.06201 0.18259,-0.06201 0.28595,-0.213596 0.10335,-0.151584 0.10335,-0.37896 0,-0.254938 -0.1378,-0.409967 -0.13436,-0.158474 -0.38241,-0.199816 -0.12402,-0.01722 -0.744141,-0.01722 h -0.795817 z"
         id="path31" />
      <path
         style="fill:#8f00ed"
         d="m 102.55105,20.401608 q 0,-0.482314 0.23771,-0.933622 0.23771,-0.451308 0.67179,-0.689019 0.43753,-0.237712 0.97497,-0.237712 0.83026,0 1.36081,0.54088 0.53054,0.537435 0.53054,1.360814 0,0.830268 -0.53743,1.378039 -0.53399,0.544325 -1.34703,0.544325 -0.50299,0 -0.96119,-0.227376 -0.45475,-0.227377 -0.69246,-0.664904 -0.23771,-0.440973 -0.23771,-1.071425 z m 0.99219,0.05168 q 0,0.544325 0.25838,0.833714 0.25838,0.289388 0.63734,0.289388 0.37896,0 0.6339,-0.289388 0.25838,-0.289389 0.25838,-0.840604 0,-0.537435 -0.25838,-0.826824 -0.25494,-0.289388 -0.6339,-0.289388 -0.37896,0 -0.63734,0.289388 -0.25838,0.289389 -0.25838,0.833714 z m 3.31762,-0.05168 q 0,-0.482314 0.23772,-0.933622 0.23771,-0.451308 0.67179,-0.689019 0.43753,-0.237712 0.97496,-0.237712 0.83027,0 1.36082,0.54088 0.53054,0.537435 0.53054,1.360814 0,0.830268 -0.53743,1.378039 -0.53399,0.544325 -1.34704,0.544325 -0.50298,0 -0.96118,-0.227376 -0.45475,-0.227377 -0.69246,-0.664904 -0.23772,-0.440973 -0.23772,-1.071425 z m 0.99219,0.05168 q 0,0.544325 0.25838,0.833714 0.25839,0.289388 0.63735,0.289388 0.37896,0 0.63389,-0.289388 0.25839,-0.289389 0.25839,-0.840604 0,-0.537435 -0.25839,-0.826824 -0.25493,-0.289388 -0.63389,-0.289388 -0.37896,0 -0.63735,0.289388 -0.25838,0.289389 -0.25838,0.833714 z m 3.46922,-1.829347 h 0.89228 v 0.499539 q 0.47886,-0.582221 1.14032,-0.582221 0.3514,0 0.60979,0.144694 0.25838,0.144694 0.42374,0.437527 0.24116,-0.292833 0.52021,-0.437527 0.27906,-0.144694 0.596,-0.144694 0.40308,0 0.68213,0.165364 0.27906,0.16192 0.41686,0.478869 0.0999,0.234267 0.0999,0.757922 v 2.339221 h -0.96807 v -2.091174 q 0,-0.544326 -0.0999,-0.7028 -0.13436,-0.206706 -0.41341,-0.206706 -0.20326,0 -0.38241,0.124023 -0.17914,0.124024 -0.25838,0.365181 -0.0792,0.237711 -0.0792,0.754476 v 1.757 h -0.96807 v -2.005047 q 0,-0.53399 -0.0517,-0.689019 -0.0517,-0.15503 -0.16192,-0.230822 -0.1068,-0.07579 -0.29283,-0.07579 -0.22393,0 -0.40308,0.120578 -0.17914,0.120579 -0.25838,0.347955 -0.0758,0.227377 -0.0758,0.754477 v 1.77767 h -0.96807 z"
         id="path32" />
      <path
         style="fill:#d4aa00"
         d="m 119.63184,17.232118 h 1.8638 q 0.63045,0 0.96118,0.09646 0.44442,0.130914 0.76137,0.465089 0.31695,0.334174 0.48231,0.819933 0.16537,0.482314 0.16537,1.192004 0,0.623562 -0.15503,1.07487 -0.18948,0.551216 -0.54088,0.89228 -0.26528,0.258383 -0.71658,0.403077 -0.33762,0.106798 -0.90262,0.106798 h -1.91892 z m 1.01975,0.854384 v 3.34519 h 0.76137 q 0.42719,0 0.61667,-0.04823 0.24805,-0.06201 0.40997,-0.210151 0.16536,-0.148139 0.26871,-0.485758 0.10336,-0.341065 0.10336,-0.926732 0,-0.585666 -0.10336,-0.89917 -0.10335,-0.313504 -0.28938,-0.489204 -0.18604,-0.1757 -0.47198,-0.237712 -0.2136,-0.04823 -0.83716,-0.04823 z"
         id="path33" />
      <path
         style="fill:#8f00f3"
         d="m 125.44717,19.740149 -0.8785,-0.158475 q 0.14814,-0.530545 0.50987,-0.785482 0.36174,-0.254937 1.07487,-0.254937 0.64768,0 0.96463,0.155029 0.31695,0.151585 0.44442,0.389296 0.13091,0.234267 0.13091,0.86472 l -0.0103,1.129992 q 0,0.482313 0.0448,0.713135 0.0482,0.227376 0.1757,0.489204 h -0.95774 q -0.0379,-0.09646 -0.093,-0.285943 -0.0241,-0.08613 -0.0345,-0.113688 -0.24804,0.241156 -0.53054,0.361735 -0.2825,0.120578 -0.60289,0.120578 -0.565,0 -0.89228,-0.306613 -0.32384,-0.306614 -0.32384,-0.775147 0,-0.310059 0.14814,-0.551216 0.14814,-0.244602 0.41341,-0.372071 0.26872,-0.130913 0.7717,-0.227376 0.67869,-0.127469 0.94051,-0.237712 v -0.09646 q 0,-0.279052 -0.1378,-0.396186 -0.13781,-0.120578 -0.52021,-0.120578 -0.25838,0 -0.40308,0.103353 -0.14469,0.09991 -0.23426,0.354845 z m 1.29535,0.785482 q -0.18603,0.06201 -0.58911,0.148139 -0.40308,0.08613 -0.5271,0.16881 -0.18948,0.134359 -0.18948,0.341065 0,0.203261 0.15158,0.3514 0.15159,0.148139 0.38586,0.148139 0.26182,0 0.49954,-0.172255 0.1757,-0.130914 0.23082,-0.320394 0.0379,-0.124024 0.0379,-0.471978 z m 3.5829,-1.901694 v 0.771702 h -0.66146 v 1.474502 q 0,0.447863 0.0172,0.523655 0.0207,0.07235 0.0861,0.120578 0.0689,0.04823 0.16536,0.04823 0.13436,0 0.3893,-0.09302 l 0.0827,0.751031 q -0.33762,0.144694 -0.76481,0.144694 -0.26183,0 -0.47198,-0.08613 -0.21015,-0.08957 -0.31006,-0.227377 -0.0965,-0.141249 -0.13436,-0.37896 -0.031,-0.16881 -0.031,-0.68213 v -1.59508 h -0.44442 V 18.62393 h 0.44442 v -0.726915 l 0.97151,-0.564996 v 1.291911 z m 1.39527,1.116212 -0.8785,-0.158475 q 0.14814,-0.530545 0.50988,-0.785482 0.36173,-0.254937 1.07487,-0.254937 0.64767,0 0.96462,0.155029 0.31695,0.151585 0.44442,0.389296 0.13091,0.234267 0.13091,0.86472 l -0.0103,1.129992 q 0,0.482313 0.0448,0.713135 0.0482,0.227376 0.1757,0.489204 h -0.95774 q -0.0379,-0.09646 -0.093,-0.285943 -0.0241,-0.08613 -0.0345,-0.113688 -0.24805,0.241156 -0.53054,0.361735 -0.2825,0.120578 -0.6029,0.120578 -0.56499,0 -0.89228,-0.306613 -0.32384,-0.306614 -0.32384,-0.775147 0,-0.310059 0.14814,-0.551216 0.14814,-0.244602 0.41341,-0.372071 0.26872,-0.130913 0.77171,-0.227376 0.67868,-0.127469 0.94051,-0.237712 v -0.09646 q 0,-0.279052 -0.13781,-0.396186 -0.1378,-0.120578 -0.52021,-0.120578 -0.25838,0 -0.40307,0.103353 -0.1447,0.09991 -0.23427,0.354845 z m 1.29536,0.785482 q -0.18604,0.06201 -0.58911,0.148139 -0.40308,0.08613 -0.5271,0.16881 -0.18948,0.134359 -0.18948,0.341065 0,0.203261 0.15158,0.3514 0.15158,0.148139 0.38585,0.148139 0.26183,0 0.49954,-0.172255 0.1757,-0.130914 0.23082,-0.320394 0.0379,-0.124024 0.0379,-0.471978 z"
         id="path34" />
      <path
         style="fill:#00f200"
         d="m 134.93152,17.232118 h 2.01883 q 0.59945,0 0.89228,0.05168 0.29628,0.04823 0.5271,0.206706 0.23427,0.158474 0.38929,0.423747 0.15503,0.261827 0.15503,0.589112 0,0.354845 -0.19292,0.651123 -0.18948,0.296279 -0.51677,0.444418 0.46165,0.134359 0.70969,0.458198 0.24805,0.323839 0.24805,0.761366 0,0.34451 -0.16192,0.671794 -0.15847,0.32384 -0.43753,0.52021 -0.2756,0.192926 -0.68212,0.237712 -0.25494,0.02756 -1.2299,0.03445 h -1.71911 z m 1.01975,0.840604 v 1.167888 h 0.66835 q 0.596,0 0.7407,-0.01723 0.26182,-0.03101 0.40996,-0.179145 0.15159,-0.151584 0.15159,-0.396186 0,-0.234267 -0.13092,-0.378961 -0.12747,-0.148139 -0.3824,-0.179145 -0.15159,-0.01722 -0.87161,-0.01722 z m 0,2.008491 v 1.350479 h 0.94396 q 0.55121,0 0.69935,-0.03101 0.22738,-0.04134 0.36863,-0.199816 0.14469,-0.161919 0.14469,-0.430637 0,-0.227376 -0.11024,-0.385851 -0.11024,-0.158474 -0.3204,-0.230821 -0.2067,-0.07235 -0.90261,-0.07235 z"
         id="path35" />
      <path
         style="fill:#8f00f4"
         d="m 140.73996,19.740149 -0.8785,-0.158475 q 0.14813,-0.530545 0.50987,-0.785482 0.36174,-0.254937 1.07487,-0.254937 0.64768,0 0.96463,0.155029 0.31695,0.151585 0.44442,0.389296 0.13091,0.234267 0.13091,0.86472 l -0.0103,1.129992 q 0,0.482313 0.0448,0.713135 0.0482,0.227376 0.1757,0.489204 h -0.95774 q -0.0379,-0.09646 -0.093,-0.285943 -0.0241,-0.08613 -0.0345,-0.113688 -0.24804,0.241156 -0.53054,0.361735 -0.2825,0.120578 -0.60289,0.120578 -0.565,0 -0.89228,-0.306613 -0.32384,-0.306614 -0.32384,-0.775147 0,-0.310059 0.14814,-0.551216 0.14814,-0.244602 0.41341,-0.372071 0.26872,-0.130913 0.7717,-0.227376 0.67868,-0.127469 0.94051,-0.237712 v -0.09646 q 0,-0.279052 -0.1378,-0.396186 -0.13781,-0.120578 -0.52021,-0.120578 -0.25838,0 -0.40308,0.103353 -0.14469,0.09991 -0.23426,0.354845 z m 1.29535,0.785482 q -0.18603,0.06201 -0.58911,0.148139 -0.40308,0.08613 -0.5271,0.16881 -0.18948,0.134359 -0.18948,0.341065 0,0.203261 0.15158,0.3514 0.15159,0.148139 0.38586,0.148139 0.26182,0 0.49953,-0.172255 0.1757,-0.130914 0.23083,-0.320394 0.0379,-0.124024 0.0379,-0.471978 z m 1.56408,0.713135 0.97151,-0.148139 q 0.062,0.282498 0.2515,0.430637 0.18948,0.144694 0.53054,0.144694 0.37552,0 0.565,-0.137803 0.12747,-0.09646 0.12747,-0.258383 0,-0.110243 -0.0689,-0.18259 -0.0723,-0.0689 -0.32384,-0.127469 -1.17133,-0.258382 -1.48483,-0.471978 -0.43409,-0.296278 -0.43409,-0.823378 0,-0.475424 0.37552,-0.799263 0.37552,-0.323839 1.16444,-0.323839 0.75103,0 1.11621,0.244602 0.36519,0.244602 0.50299,0.72347 l -0.91295,0.16881 q -0.0586,-0.213596 -0.22393,-0.327284 -0.16192,-0.113688 -0.46509,-0.113688 -0.38241,0 -0.54777,0.106798 -0.11025,0.07579 -0.11025,0.19637 0,0.103353 0.0965,0.1757 0.13091,0.09646 0.90261,0.272163 0.77515,0.1757 1.08176,0.430637 0.30317,0.258382 0.30317,0.720025 0,0.502985 -0.4203,0.86472 -0.4203,0.361735 -1.24368,0.361735 -0.74759,0 -1.18511,-0.303168 -0.43409,-0.303169 -0.56844,-0.823379 z m 6.38376,-0.120578 0.96463,0.161919 q -0.18604,0.530546 -0.58911,0.809598 -0.39963,0.275608 -1.00253,0.275608 -0.95429,0 -1.41249,-0.623562 -0.36173,-0.49954 -0.36173,-1.260906 0,-0.909506 0.47542,-1.422826 0.47542,-0.516764 1.20234,-0.516764 0.81649,0 1.28847,0.54088 0.47198,0.537435 0.4513,1.650202 h -2.42534 q 0.0103,0.430637 0.23426,0.671794 0.22393,0.237712 0.55811,0.237712 0.22737,0 0.3824,-0.124024 0.15503,-0.124023 0.23427,-0.399631 z m 0.0551,-0.978408 q -0.0103,-0.420302 -0.21704,-0.637343 -0.2067,-0.220486 -0.50298,-0.220486 -0.31695,0 -0.52366,0.230821 -0.2067,0.230822 -0.20326,0.627008 z"
         id="path36" />
      <path
         style="fill:#0000fa"
         d="m 153.72453,22.282631 v -5.050513 h 1.01975 v 5.050513 z"
         id="path37" />
      <path
         style="fill:#4b00b5"
         d="m 155.71235,17.232118 h 1.8638 q 0.63045,0 0.96118,0.09646 0.44442,0.130914 0.76137,0.465089 0.31695,0.334174 0.48231,0.819933 0.16537,0.482314 0.16537,1.192004 0,0.623562 -0.15503,1.07487 -0.18948,0.551216 -0.54088,0.89228 -0.26528,0.258383 -0.71658,0.403077 -0.33762,0.106798 -0.90262,0.106798 h -1.91892 z m 1.01975,0.854384 v 3.34519 h 0.76137 q 0.42719,0 0.61667,-0.04823 0.24805,-0.06201 0.40997,-0.210151 0.16536,-0.148139 0.26871,-0.485758 0.10336,-0.341065 0.10336,-0.926732 0,-0.585666 -0.10336,-0.89917 -0.10335,-0.313504 -0.28938,-0.489204 -0.18604,-0.1757 -0.47198,-0.237712 -0.2136,-0.04823 -0.83716,-0.04823 z"
         id="path38" />
      <path
         style="fill:#8f00f2"
         d="m 162.92294,21.118188 0.96463,0.161919 q -0.18604,0.530546 -0.58911,0.809598 -0.39964,0.275608 -1.00253,0.275608 -0.95429,0 -1.41249,-0.623562 -0.36173,-0.49954 -0.36173,-1.260906 0,-0.909506 0.47542,-1.422826 0.47542,-0.516764 1.20234,-0.516764 0.81649,0 1.28847,0.54088 0.47197,0.537435 0.4513,1.650202 h -2.42535 q 0.0103,0.430637 0.23427,0.671794 0.22393,0.237712 0.55811,0.237712 0.22737,0 0.3824,-0.124024 0.15503,-0.124023 0.23427,-0.399631 z m 0.0551,-0.978408 q -0.0103,-0.420302 -0.21704,-0.637343 -0.20671,-0.220486 -0.50298,-0.220486 -0.31695,0 -0.52366,0.230821 -0.2067,0.230822 -0.20326,0.627008 z m 5.07807,2.142851 h -0.96807 v -1.867243 q 0,-0.592557 -0.062,-0.764812 -0.062,-0.1757 -0.20326,-0.272162 -0.1378,-0.09646 -0.33417,-0.09646 -0.2515,0 -0.45131,0.137804 -0.19982,0.137804 -0.27561,0.36518 -0.0724,0.227377 -0.0724,0.840604 v 1.657092 h -0.96807 V 18.62394 h 0.89917 v 0.537435 q 0.47887,-0.620117 1.20578,-0.620117 0.3204,0 0.58567,0.117133 0.26527,0.113688 0.39963,0.292833 0.13781,0.179146 0.18948,0.406522 0.0551,0.227376 0.0551,0.651123 z m 2.65962,-3.658694 v 0.771702 h -0.66145 v 1.474502 q 0,0.447863 0.0172,0.523655 0.0207,0.07235 0.0861,0.120578 0.0689,0.04823 0.16536,0.04823 0.13436,0 0.3893,-0.09302 l 0.0827,0.751031 q -0.33762,0.144694 -0.76481,0.144694 -0.26183,0 -0.47198,-0.08613 -0.21015,-0.08957 -0.31006,-0.227377 -0.0965,-0.141249 -0.13436,-0.37896 -0.031,-0.16881 -0.031,-0.68213 v -1.59508 h -0.44442 V 18.62393 h 0.44442 v -0.726915 l 0.97152,-0.564996 v 1.291911 z m 0.6718,-0.496094 v -0.895725 h 0.96807 v 0.895725 z m 0,4.154788 v -3.658694 h 0.96807 v 3.658694 z m 1.53651,-3.658694 h 0.53743 v -0.275608 q 0,-0.461643 0.0965,-0.689019 0.0999,-0.227377 0.36173,-0.368626 0.26528,-0.144694 0.66835,-0.144694 0.41341,0 0.8096,0.124024 l -0.13091,0.675239 q -0.23083,-0.05512 -0.44442,-0.05512 -0.21015,0 -0.30317,0.09991 -0.0896,0.09646 -0.0896,0.375516 v 0.258382 h 0.72347 v 0.761367 h -0.72347 v 2.897327 h -0.96808 v -2.897327 h -0.53743 z m 2.7733,-0.496094 v -0.895725 h 0.96808 v 0.895725 z m 0,4.154788 v -3.658694 h 0.96808 v 3.658694 z m 5.15042,-2.576933 -0.95429,0.172255 q -0.0482,-0.285943 -0.22049,-0.430637 -0.16881,-0.144695 -0.44097,-0.144695 -0.36173,0 -0.57878,0.251493 -0.21359,0.248047 -0.21359,0.833713 0,0.651124 0.21704,0.919841 0.22049,0.268718 0.58911,0.268718 0.27561,0 0.45131,-0.15503 0.1757,-0.158474 0.24805,-0.54088 l 0.95084,0.16192 q -0.14814,0.654568 -0.56844,0.988743 -0.4203,0.334174 -1.12655,0.334174 -0.8027,0 -1.28157,-0.506429 -0.47542,-0.506429 -0.47542,-1.402155 0,-0.906061 0.47886,-1.409045 0.47887,-0.506429 1.29536,-0.506429 0.66835,0 1.06109,0.289388 0.39619,0.285943 0.56844,0.875055 z m 1.45728,0.03445 -0.8785,-0.158475 q 0.14814,-0.530545 0.50987,-0.785482 0.36174,-0.254937 1.07487,-0.254937 0.64768,0 0.96463,0.155029 0.31695,0.151585 0.44442,0.389296 0.13091,0.234267 0.13091,0.86472 l -0.0103,1.129992 q 0,0.482313 0.0448,0.713135 0.0482,0.227376 0.1757,0.489204 h -0.95774 q -0.0379,-0.09646 -0.093,-0.285943 -0.0241,-0.08613 -0.0344,-0.113688 -0.24805,0.241156 -0.53055,0.361735 -0.2825,0.120578 -0.60289,0.120578 -0.565,0 -0.89228,-0.306613 -0.32384,-0.306614 -0.32384,-0.775147 0,-0.310059 0.14814,-0.551216 0.14814,-0.244602 0.41341,-0.372071 0.26872,-0.130913 0.7717,-0.227376 0.67869,-0.127469 0.94051,-0.237712 v -0.09646 q 0,-0.279052 -0.1378,-0.396186 -0.1378,-0.120578 -0.52021,-0.120578 -0.25838,0 -0.40308,0.103353 -0.14469,0.09991 -0.23426,0.354845 z m 1.29535,0.785482 q -0.18603,0.06201 -0.58911,0.148139 -0.40307,0.08613 -0.5271,0.16881 -0.18948,0.134359 -0.18948,0.341065 0,0.203261 0.15159,0.3514 0.15158,0.148139 0.38585,0.148139 0.26182,0 0.49954,-0.172255 0.1757,-0.130914 0.23082,-0.320394 0.0379,-0.124024 0.0379,-0.471978 z m 3.58291,-1.901694 v 0.771702 h -0.66146 v 1.474502 q 0,0.447863 0.0172,0.523655 0.0207,0.07235 0.0861,0.120578 0.0689,0.04823 0.16536,0.04823 0.13436,0 0.3893,-0.09302 l 0.0827,0.751031 q -0.33762,0.144694 -0.76481,0.144694 -0.26183,0 -0.47198,-0.08613 -0.21015,-0.08957 -0.31006,-0.227377 -0.0965,-0.141249 -0.13436,-0.37896 -0.031,-0.16881 -0.031,-0.68213 v -1.59508 h -0.44442 v -0.771702 h 0.44442 v -0.726915 l 0.97151,-0.564996 v 1.291911 z m 0.6718,-0.496094 v -0.895725 h 0.96807 v 0.895725 z m 0,4.154788 v -3.658694 h 0.96807 v 3.658694 z m 1.73632,-1.881023 q 0,-0.482314 0.23771,-0.933622 0.23772,-0.451308 0.6718,-0.689019 0.43753,-0.237712 0.97496,-0.237712 0.83027,0 1.36081,0.54088 0.53055,0.537435 0.53055,1.360814 0,0.830268 -0.53744,1.378039 -0.53399,0.544325 -1.34703,0.544325 -0.50298,0 -0.96118,-0.227376 -0.45475,-0.227377 -0.69247,-0.664904 -0.23771,-0.440973 -0.23771,-1.071425 z m 0.99219,0.05168 q 0,0.544325 0.25838,0.833714 0.25839,0.289388 0.63735,0.289388 0.37896,0 0.63389,-0.289388 0.25839,-0.289389 0.25839,-0.840604 0,-0.537435 -0.25839,-0.826824 -0.25493,-0.289388 -0.63389,-0.289388 -0.37896,0 -0.63735,0.289388 -0.25838,0.289389 -0.25838,0.833714 z m 6.86952,1.829347 h -0.96807 v -1.867243 q 0,-0.592557 -0.062,-0.764812 -0.062,-0.1757 -0.20326,-0.272162 -0.13781,-0.09646 -0.33418,-0.09646 -0.25149,0 -0.4513,0.137804 -0.19982,0.137804 -0.27561,0.36518 -0.0724,0.227377 -0.0724,0.840604 v 1.657092 h -0.96807 v -3.658694 h 0.89917 v 0.537435 q 0.47887,-0.620117 1.20578,-0.620117 0.3204,0 0.58567,0.117133 0.26527,0.113688 0.39963,0.292833 0.1378,0.179146 0.18948,0.406522 0.0551,0.227376 0.0551,0.651123 z"
         id="path39" />
    </g>
  </g>
</svg>
